<svg xmlns="http://www.w3.org/2000/svg" viewBox="0 0 24 24" width="24" height="24">
  <defs><linearGradient id="cafe" x1="4" y1="10" x2="18" y2="20" gradientUnits="userSpaceOnUse"><stop stop-color="#A47551"/><stop offset="1" stop-color="#6F4518"/></linearGradient></defs>
  <path d="M5 9h11v5a4 4 0 0 1-4 4H9a4 4 0 0 1-4-4V9Z" fill="url(#cafe)"/>
  <path d="M16 10h2.2a2.3 2.3 0 0 1 0 4.6H16" stroke="#6F4518" stroke-width="1.6" fill="none"/>
  <path d="M7.5 6.5c.5-.7.5-1.3 0-2M10.5 6.5c.5-.7.5-1.3 0-2M13.5 6.5c.5-.7.5-1.3 0-2" stroke="#C9A27E" stroke-width="1.3" stroke-linecap="round"/>
  <rect x="4" y="19.5" width="13" height="1.8" rx="0.9" fill="#6F4518"/>
</svg>
