<svg xmlns="http://www.w3.org/2000/svg" viewBox="0 0 100 100">
  <rect width="100" height="100" rx="16" fill="#1a1000"/>
  <path d="M25,35 L35,28 L50,33 L65,28 L75,35 L72,75 L50,78 L28,75 Z" fill="#3D2B00"/>
  <path d="M27,36 L36,30 L50,35 L64,30 L73,36 L70,73 L50,76 L30,73 Z" fill="#5C4008"/>
  <path d="M36,30 L50,35 L64,30 L60,22 L50,24 L40,22 Z" fill="#7A5510"/>
  <path d="M27,36 L36,30 L50,35 L64,30 L73,36" fill="none" stroke="#D4A017" stroke-width="2"/>
  <path d="M30,73 L50,76 L70,73" fill="none" stroke="#D4A017" stroke-width="2"/>
  <line x1="50" y1="35" x2="50" y2="76" stroke="#D4A017" stroke-width="1.5" opacity="0.7"/>
  <circle cx="50" cy="44" r="3" fill="#D4A017"/>
  <circle cx="50" cy="54" r="3" fill="#D4A017"/>
  <circle cx="50" cy="64" r="3" fill="#D4A017"/>
  <path d="M25,35 L28,45 L34,42 L36,30 Z" fill="#6B4C0A" opacity="0.8"/>
  <path d="M75,35 L72,45 L66,42 L64,30 Z" fill="#6B4C0A" opacity="0.8"/>
</svg>
