<svg xmlns="http://www.w3.org/2000/svg" viewBox="0 0 24 24" width="24" height="24">
  <defs><linearGradient id="ent" x1="3" y1="8" x2="21" y2="17" gradientUnits="userSpaceOnUse"><stop stop-color="#DA77F2"/><stop offset="1" stop-color="#9C36B5"/></linearGradient></defs>
  <path d="M7.5 8h9a4.5 4.5 0 0 1 4.4 5.5l-.5 2.2A2.5 2.5 0 0 1 16 16.8l-1-1.3a2 2 0 0 0-1.6-.8h-2.8a2 2 0 0 0-1.6.8l-1 1.3a2.5 2.5 0 0 1-4.4-1.1l-.5-2.2A4.5 4.5 0 0 1 7.5 8Z" fill="url(#ent)"/>
  <rect x="6" y="11" width="1.6" height="4" rx="0.8" fill="#fff"/>
  <rect x="4.2" y="12.4" width="4" height="1.6" rx="0.8" fill="#fff"/>
  <circle cx="16" cy="11.5" r="1.1" fill="#fff"/>
  <circle cx="17.8" cy="13.3" r="1.1" fill="#fff"/>
</svg>
