<svg xmlns="http://www.w3.org/2000/svg" viewBox="0 0 24 24" width="24" height="24">
  <defs><linearGradient id="food" x1="4" y1="4" x2="20" y2="22" gradientUnits="userSpaceOnUse"><stop stop-color="#FF6B6B"/><stop offset="1" stop-color="#E03131"/></linearGradient></defs>
  <path d="M12 7c-1.5-1.8-4-2.2-5.8-.9C4 7.6 3.5 10.5 4.7 13.4c.9 2.2 2.6 4.5 4.3 5.4 1 .5 2 .5 3 0 1.7-.9 3.4-3.2 4.3-5.4 1.2-2.9.7-5.8-1.5-7.3C17 4.8 13.5 5.2 12 7Z" fill="url(#food)"/>
  <path d="M12 7c.2-1.4 1.2-2.8 2.8-3.2" stroke="#2F9E44" stroke-width="1.6" stroke-linecap="round" fill="none"/>
  <ellipse cx="14.5" cy="4.2" rx="1.8" ry="1" fill="#40C057" transform="rotate(-30 14.5 4.2)"/>
</svg>
