<svg xmlns="http://www.w3.org/2000/svg" viewBox="0 0 100 100">
  <rect width="100" height="100" rx="16" fill="#1a0505"/>
  <rect x="42" y="22" width="16" height="8" rx="3" fill="#8B6914"/>
  <rect x="44" y="20" width="12" height="5" rx="2" fill="#A0792A"/>
  <rect x="43" y="30" width="14" height="10" rx="2" fill="#4A0000"/>
  <path d="M30,40 Q26,45 26,58 Q26,76 50,78 Q74,76 74,58 Q74,45 70,40 Z" fill="#3A0000"/>
  <path d="M32,41 Q28,46 28,58 Q28,74 50,76 Q72,74 72,58 Q72,46 68,41 Z" fill="#C0392B" opacity="0.85"/>
  <path d="M32,55 Q32,74 50,76 Q68,74 68,55 Z" fill="#E74C3C"/>
  <path d="M34,57 Q34,72 50,74 Q66,72 66,57 Z" fill="#FF6B6B" opacity="0.5"/>
  <circle cx="42" cy="62" r="3" fill="#FF8A80" opacity="0.6"/>
  <circle cx="58" cy="58" r="2" fill="#FF8A80" opacity="0.5"/>
  <circle cx="48" cy="68" r="2" fill="#FF8A80" opacity="0.4"/>
  <path d="M35,44 Q33,50 34,56" stroke="#FF8A80" stroke-width="2" fill="none" opacity="0.5" stroke-linecap="round"/>
  <rect x="46" y="46" width="8" height="2" rx="1" fill="#FFE0E0" opacity="0.7"/>
  <rect x="49" y="43" width="2" height="8" rx="1" fill="#FFE0E0" opacity="0.7"/>
</svg>
