<svg xmlns="http://www.w3.org/2000/svg" viewBox="0 0 100 100">
  <rect width="100" height="100" rx="16" fill="#0d0020"/>
  <rect x="18" y="56" width="64" height="30" rx="4" fill="#2C1810"/>
  <rect x="20" y="57" width="60" height="28" rx="3" fill="#4A2C1A"/>
  <path d="M18,56 Q18,36 50,34 Q82,36 82,56 Z" fill="#2C1810"/>
  <path d="M20,56 Q20,38 50,36 Q80,38 80,56 Z" fill="#3D2012"/>
  <rect x="18" y="52" width="64" height="6" fill="#1A0A30" opacity="0.8"/>
  <rect x="20" y="53" width="60" height="4" rx="1" fill="#6A0DAD" opacity="0.6"/>
  <rect x="42" y="50" width="16" height="12" rx="3" fill="#4A235A"/>
  <path d="M45,50 Q45,43 50,43 Q55,43 55,50" fill="none" stroke="#9B59B6" stroke-width="2.5"/>
  <circle cx="50" cy="56" r="3" fill="#CE93D8"/>
  <circle cx="50" cy="55" r="2" fill="#0d0020"/>
  <rect x="49" y="55" width="2" height="4" fill="#0d0020"/>
  <circle cx="32" cy="68" r="5" fill="#F39C12" opacity="0.5"/>
  <circle cx="40" cy="66" r="4" fill="#F1C40F" opacity="0.4"/>
  <circle cx="60" cy="67" r="5" fill="#F39C12" opacity="0.5"/>
  <circle cx="68" cy="65" r="4" fill="#F1C40F" opacity="0.4"/>
  <ellipse cx="50" cy="54" rx="22" ry="18" fill="#7D3C98" opacity="0.1"/>
</svg>
