<svg xmlns="http://www.w3.org/2000/svg" viewBox="0 0 100 100">
  <rect width="100" height="100" rx="16" fill="#001a00"/>
  <rect x="56" y="18" width="22" height="28" rx="3" fill="#F5DEB3"/>
  <rect x="57" y="20" width="20" height="24" rx="2" fill="#FAEBD7"/>
  <line x1="60" y1="25" x2="74" y2="25" stroke="#8B7355" stroke-width="1"/>
  <line x1="60" y1="29" x2="74" y2="29" stroke="#8B7355" stroke-width="1"/>
  <line x1="60" y1="33" x2="70" y2="33" stroke="#8B7355" stroke-width="1"/>
  <path d="M28,55 Q22,45 30,35 Q38,28 50,30 Q62,28 70,35 Q78,45 72,55 Q68,75 50,78 Q32,75 28,55 Z" fill="#1A5C00"/>
  <path d="M30,54 Q24,46 32,37 Q40,30 50,32 Q60,30 68,37 Q76,46 70,54 Q66,73 50,76 Q34,73 30,54 Z" fill="#27AE60"/>
  <path d="M38,32 Q50,28 62,32 Q58,38 50,36 Q42,38 38,32 Z" fill="#1E8449"/>
  <circle cx="38" cy="48" r="6" fill="#F39C12"/>
  <circle cx="38" cy="48" r="4" fill="#F1C40F"/>
  <circle cx="50" cy="44" r="6" fill="#F39C12"/>
  <circle cx="50" cy="44" r="4" fill="#F1C40F"/>
  <circle cx="62" cy="48" r="6" fill="#F39C12"/>
  <circle cx="62" cy="48" r="4" fill="#F1C40F"/>
  <circle cx="44" cy="58" r="5" fill="#F39C12"/>
  <circle cx="44" cy="58" r="3" fill="#F1C40F"/>
  <circle cx="56" cy="58" r="5" fill="#F39C12"/>
  <circle cx="56" cy="58" r="3" fill="#F1C40F"/>
</svg>
