<svg xmlns="http://www.w3.org/2000/svg" viewBox="0 0 40 40">
  <rect width="40" height="40" rx="8" fill="#0a0a1a"/>
  <!-- Magic shield -->
  <path d="M20,6 L32,12 L32,22 Q32,30 20,35 Q8,30 8,22 L8,12 Z" fill="#2C1A5C"/>
  <path d="M20,8 L30,13 L30,22 Q30,29 20,33 Q10,29 10,22 L10,13 Z" fill="#534AB7"/>
  <path d="M20,10 L28,14 L28,22 Q28,28 20,31 Q12,28 12,22 L12,14 Z" fill="#7F77DD" opacity="0.7"/>
  <!-- Star in shield -->
  <path d="M20,14 L21.5,18.5 L26,18.5 L22.5,21.5 L24,26 L20,23 L16,26 L17.5,21.5 L14,18.5 L18.5,18.5 Z" fill="#FFD700"/>
  <path d="M20,14 L21.5,18.5 L26,18.5 L22.5,21.5 L24,26 L20,23 L16,26 L17.5,21.5 L14,18.5 L18.5,18.5 Z" fill="#FFF9C4" opacity="0.5"/>
  <!-- Glow -->
  <ellipse cx="20" cy="20" rx="14" ry="14" fill="#7F77DD" opacity="0.06"/>
</svg>
