<svg xmlns="http://www.w3.org/2000/svg" viewBox="0 0 24 24" width="24" height="24">
  <defs><linearGradient id="trans" x1="3" y1="8" x2="21" y2="18" gradientUnits="userSpaceOnUse"><stop stop-color="#4DABF7"/><stop offset="1" stop-color="#1971C2"/></linearGradient></defs>
  <path d="M4 14l1.5-4.2A3 3 0 0 1 8.3 8h7.4a3 3 0 0 1 2.8 1.8L20 14v3.5a1 1 0 0 1-1 1h-1.5a1 1 0 0 1-1-1V17H7.5v.5a1 1 0 0 1-1 1H5a1 1 0 0 1-1-1V14Z" fill="url(#trans)"/>
  <path d="M6 13.5l1-2.5a1.5 1.5 0 0 1 1.4-1h7.2a1.5 1.5 0 0 1 1.4 1l1 2.5H6Z" fill="#E7F5FF" opacity="0.85"/>
  <circle cx="7.5" cy="16.5" r="1.6" fill="#1864AB"/>
  <circle cx="16.5" cy="16.5" r="1.6" fill="#1864AB"/>
</svg>
