<svg xmlns="http://www.w3.org/2000/svg" viewBox="0 0 100 100">
  <rect width="100" height="100" rx="16" fill="#0a1a2a"/>
  <circle cx="50" cy="52" r="22" fill="none" stroke="#4FC3F7" stroke-width="3"/>
  <circle cx="50" cy="52" r="16" fill="none" stroke="#29B6F6" stroke-width="1.5" opacity="0.5"/>
  <circle cx="50" cy="52" r="7" fill="#0288D1"/>
  <circle cx="50" cy="52" r="4" fill="#4FC3F7"/>
  <line x1="50" y1="30" x2="50" y2="74" stroke="#4FC3F7" stroke-width="1.5" opacity="0.7"/>
  <line x1="28" y1="52" x2="72" y2="52" stroke="#4FC3F7" stroke-width="1.5" opacity="0.7"/>
  <line x1="34" y1="36" x2="66" y2="68" stroke="#4FC3F7" stroke-width="1.5" opacity="0.5"/>
  <line x1="66" y1="36" x2="34" y2="68" stroke="#4FC3F7" stroke-width="1.5" opacity="0.5"/>
  <path d="M28,46 Q14,38 10,52 Q14,58 28,54 Z" fill="#29B6F6" opacity="0.7"/>
  <path d="M72,46 Q86,38 90,52 Q86,58 72,54 Z" fill="#29B6F6" opacity="0.7"/>
  <path d="M25,43 Q12,34 8,46 Q12,50 25,48 Z" fill="#4FC3F7" opacity="0.4"/>
  <path d="M75,43 Q88,34 92,46 Q88,50 75,48 Z" fill="#4FC3F7" opacity="0.4"/>
</svg>
